:FULLY-SPECIFIED
:FORCE-ALL-JOINTS-BE-3DOF
:DEGREES
306
root 1.21295 15.3417 -35.5306 68.4421 81.8223 70.9055
lfemur -4.76926 3.05556 -18.9595
ltibia 50.3458 0 0
lfoot -27.4742 26.6191 0
ltoes -8.30864 0 0
rfemur -52.4572 -5.45776 11.261
rtibia 57.1754 0 0
rfoot -0.22211 9.41293 0
rtoes -10.5226 0 0
lowerback 17.865 -0.210563 -10.3362
upperback -0.591923 -2.25603 1.88983
thorax -10.2402 -0.434856 8.62784
lowerneck -4.79912 -2.15318 -3.58311
upperneck 5.87168 -2.70611 1.58154
head 2.7929 -1.36958 1.02801
lclavicle -6.57773e-15 3.75437e-16 0
lhumerus 6.75095 -47.2416 88.2379
lradius 51.9921 0 0
lwrist -16.5749 0 0
lhand -25.6426 41.0898 0
lfingers 7.12502 0 0
lthumb 0.890937 71.0671 0
rclavicle -6.57773e-15 3.75437e-16 0
rhumerus 3.51716 26.9411 -66.7346
rradius 116.334 0 0
rwrist -42.4112 0 0
rhand 85.7719 -11.5813 0
rfingers 7.12502 0 0
rthumb 59.0676 -93.9419 0
307
root 1.22166 15.3387 -35.529 68.5882 81.9893 71.0693
lfemur -4.74166 3.06905 -18.9819
ltibia 50.3709 0 0
lfoot -27.4938 26.6591 0
ltoes -8.27304 0 0
rfemur -52.5233 -5.46737 11.2517
rtibia 57.202 0 0
rfoot -0.16936 9.43831 0
rtoes -10.4983 0 0
lowerback 17.8854 -0.216084 -10.3526
upperback -0.58715 -2.26694 1.89135
thorax -10.2456 -0.439148 8.64111
lowerneck -4.79934 -2.15005 -3.57694
upperneck 5.87488 -2.70171 1.57129
head 2.79325 -1.36757 1.02365
lclavicle -6.60992e-15 4.04418e-16 0
lhumerus 6.81021 -47.3264 88.2428
lradius 52.0522 0 0
lwrist -16.5442 0 0
lhand -25.6355 41.1142 0
lfingers 7.12502 0 0
lthumb 0.897792 71.0915 0
rclavicle -6.60992e-15 4.04418e-16 0
rhumerus 3.59873 26.9822 -66.7029
rradius 116.497 0 0
rwrist -42.5112 0 0
rhand 86.0076 -11.577 0
rfingers 7.12502 0 0
rthumb 59.1712 -93.7901 0
308
root 1.23027 15.3357 -35.5274 68.7327 82.1541 71.2312
lfemur -4.71442 3.08233 -19.0041
ltibia 50.3956 0 0
lfoot -27.5132 26.6985 0
ltoes -8.23794 0 0
rfemur -52.5884 -5.4768 11.2424
rtibia 57.2281 0 0
rfoot -0.117155 9.46335 0
rtoes -10.4742 0 0
lowerback 17.9056 -0.221527 -10.3688
upperback -0.582451 -2.27769 1.89286
thorax -10.2508 -0.443378 8.65421
lowerneck -4.79955 -2.14698 -3.57086
upperneck 5.87806 -2.69739 1.56118
head 2.79361 -1.3656 1.01934
lclavicle -6.64209e-15 4.3326e-16 0
lhumerus 6.86842 -47.41 88.2479
lradius 52.1117 0 0
lwrist -16.5138 0 0
lhand -25.6284 41.1382 0
lfingers 7.12502 0 0
lthumb 0.904569 71.1156 0
rclavicle -6.64209e-15 4.3326e-16 0
rhumerus 3.6794 27.0226 -66.6716
rradius 116.657 0 0
rwrist -42.6101 0 0
rhand 86.2404 -11.5732 0
rfingers 7.12502 0 0
rthumb 59.2731 -93.6341 0
309
root 1.23876 15.3328 -35.5259 68.8757 82.3166 71.3913
lfemur -4.68754 3.09543 -19.0259
ltibia 50.4199 0 0
lfoot -27.5324 26.7374 0
ltoes -8.20334 0 0
rfemur -52.6526 -5.48606 11.2332
rtibia 57.2537 0 0
rfoot -0.0655002 9.48806 0
rtoes -10.4504 0 0
lowerback 17.9254 -0.226893 -10.3847
upperback -0.577828 -2.28827 1.89436
thorax -10.256 -0.447545 8.66711
lowerneck -4.79976 -2.14397 -3.56488
upperneck 5.88121 -2.69315 1.55119
head 2.79397 -1.36368 1.01509
lclavicle -6.67422e-15 4.61964e-16 0
lhumerus 6.92558 -47.4925 88.2531
lradius 52.1706 0 0
lwrist -16.4838 0 0
lhand -25.6215 41.162 0
lfingers 7.12502 0 0
lthumb 0.91127 71.1394 0
rclavicle -6.67422e-15 4.61964e-16 0
rhumerus 3.75918 27.0623 -66.6407
rradius 116.814 0 0
rwrist -42.7077 0 0
rhand 86.4703 -11.5702 0
rfingers 7.12502 0 0
rthumb 59.3732 -93.474 0
310
root 1.24714 15.3299 -35.5243 69.017 82.4768 71.5496
lfemur -4.66104 3.10832 -19.0473
ltibia 50.4439 0 0
lfoot -27.5512 26.7758 0
ltoes -8.16924 0 0
rfemur -52.7159 -5.49513 11.224
rtibia 57.2787 0 0
rfoot -0.0143988 9.51244 0
rtoes -10.4268 0 0
lowerback 17.9449 -0.232181 -10.4004
upperback -0.573282 -2.2987 1.89584
thorax -10.2612 -0.451649 8.67984
lowerneck -4.79997 -2.14103 -3.559
upperneck 5.88435 -2.689 1.54134
head 2.79433 -1.36179 1.0109
lclavicle -6.70631e-15 4.90527e-16 0
lhumerus 6.98167 -47.5738 88.2585
lradius 52.2288 0 0
lwrist -16.4542 0 0
lhand -25.6146 41.1855 0
lfingers 7.12502 0 0
lthumb 0.917893 71.1629 0
rclavicle -6.70631e-15 4.90527e-16 0
rhumerus 3.83805 27.1013 -66.6102
rradius 116.969 0 0
rwrist -42.8042 0 0
rhand 86.6974 -11.5679 0
rfingers 7.12502 0 0
rthumb 59.4716 -93.3097 0
311
root 1.25541 15.327 -35.5228 69.1567 82.6347 71.7059
lfemur -4.6349 3.12101 -19.0684
ltibia 50.4675 0 0
lfoot -27.5698 26.8136 0
ltoes -8.13564 0 0
rfemur -52.7782 -5.50403 11.215
rtibia 57.3031 0 0
rfoot 0.0361452 9.53648 0
rtoes -10.4035 0 0
lowerback 17.9641 -0.23739 -10.4159
upperback -0.568811 -2.30897 1.89731
thorax -10.2662 -0.455691 8.69237
lowerneck -4.80017 -2.13814 -3.55322
upperneck 5.88746 -2.68493 1.53162
head 2.79469 -1.35994 1.00677
lclavicle -6.73837e-15 5.1895e-16 0
lhumerus 7.03669 -47.6539 88.264
lradius 52.2864 0 0
lwrist -16.4249 0 0
lhand -25.6079 41.2087 0
lfingers 7.12502 0 0
lthumb 0.924437 71.1861 0
rclavicle -6.73837e-15 5.1895e-16 0
rhumerus 3.91602 27.1397 -66.5801
rradius 117.122 0 0
rwrist -42.8995 0 0
rhand 86.9216 -11.5662 0
rfingers 7.12502 0 0
rthumb 59.5683 -93.1413 0
312
root 1.26356 15.3242 -35.5213 69.2949 82.7903 71.8604
lfemur -4.60914 3.13351 -19.0892
ltibia 50.4908 0 0
lfoot -27.5881 26.8508 0
ltoes -8.10256 0 0
rfemur -52.8396 -5.51275 11.2059
rtibia 57.3269 0 0
rfoot 0.0861278 9.56018 0
rtoes -10.3805 0 0
lowerback 17.983 -0.24252 -10.4311
upperback -0.564418 -2.31908 1.89877
thorax -10.2711 -0.459668 8.70471
lowerneck -4.80037 -2.13532 -3.54753
upperneck 5.89055 -2.68095 1.52203
head 2.79506 -1.35814 1.0027
lclavicle -6.7704e-15 5.47229e-16 0
lhumerus 7.09063 -47.7328 88.2696
lradius 52.3433 0 0
lwrist -16.3959 0 0
lhand -25.6012 41.2316 0
lfingers 7.12502 0 0
lthumb 0.930902 71.209 0
rclavicle -6.7704e-15 5.47229e-16 0
rhumerus 3.99306 27.1774 -66.5504
rradius 117.272 0 0
rwrist -42.9935 0 0
rhand 87.1429 -11.5652 0
rfingers 7.12502 0 0
rthumb 59.6632 -92.9686 0
313
root 1.2716 15.3214 -35.5198 69.4313 82.9435 72.013
lfemur -4.58375 3.14579 -19.1097
ltibia 50.5137 0 0
lfoot -27.6062 26.8875 0
ltoes -8.06999 0 0
rfemur -52.9 -5.52128 11.197
rtibia 57.3502 0 0
rfoot 0.135545 9.58354 0
rtoes -10.3577 0 0
lowerback 18.0015 -0.247571 -10.4461
upperback -0.560103 -2.32902 1.90021
thorax -10.276 -0.463581 8.71687
lowerneck -4.80057 -2.13256 -3.54194
upperneck 5.89362 -2.67706 1.51258
head 2.79543 -1.35637 0.998682
lclavicle -6.80238e-15 5.75365e-16 0
lhumerus 7.14349 -47.8106 88.2754
lradius 52.3996 0 0
lwrist -16.3674 0 0
lhand -25.5946 41.2543 0
lfingers 7.12502 0 0
lthumb 0.937288 71.2317 0
rclavicle -6.80238e-15 5.75365e-16 0
rhumerus 4.06919 27.2144 -66.5211
rradius 117.42 0 0
rwrist -43.0863 0 0
rhand 87.3612 -11.565 0
rfingers 7.12502 0 0
rthumb 59.7564 -92.7917 0
314
root 1.27952 15.3187 -35.5184 69.5662 83.0945 72.1637
lfemur -4.55874 3.15788 -19.1298
ltibia 50.5362 0 0
lfoot -27.624 26.9236 0
ltoes -8.03794 0 0
rfemur -52.9594 -5.52963 11.1881
rtibia 57.3728 0 0
rfoot 0.184394 9.60656 0
rtoes -10.3352 0 0
lowerback 18.0197 -0.252541 -10.4608
upperback -0.555866 -2.3388 1.90163
thorax -10.2808 -0.46743 8.72883
lowerneck -4.80076 -2.12987 -3.53645
upperneck 5.89667 -2.67325 1.50326
head 2.79581 -1.35465 0.994728
lclavicle -6.83433e-15 6.03357e-16 0
lhumerus 7.19526 -47.8871 88.2813
lradius 52.4553 0 0
lwrist -16.3392 0 0
lhand -25.588 41.2766 0
lfingers 7.12502 0 0
lthumb 0.943594 71.254 0
rclavicle -6.83433e-15 6.03357e-16 0
rhumerus 4.14438 27.2507 -66.4922
rradius 117.565 0 0
rwrist -43.1779 0 0
rhand 87.5765 -11.5654 0
rfingers 7.12502 0 0
rthumb 59.8478 -92.6105 0
315
root 1.28733 15.316 -35.5169 69.6994 83.243 72.3125
lfemur -4.5341 3.16976 -19.1495
ltibia 50.5583 0 0
lfoot -27.6414 26.9591 0
ltoes -8.0064 0 0
rfemur -53.0179 -5.53779 11.1793
rtibia 57.3949 0 0
rfoot 0.232669 9.62923 0
rtoes -10.3129 0 0
lowerback 18.0376 -0.257431 -10.4753
upperback -0.551707 -2.34841 1.90305
thorax -10.2855 -0.471214 8.7406
lowerneck -4.80095 -2.12724 -3.53106
upperneck 5.89969 -2.66952 1.49408
head 2.79619 -1.35296 0.990833
lclavicle -6.86624e-15 6.31202e-16 0
lhumerus 7.24593 -47.9625 88.2874
lradius 52.5102 0 0
lwrist -16.3114 0 0
lhand -25.5816 41.2987 0
lfingers 7.12502 0 0
lthumb 0.94982 71.2761 0
rclavicle -6.86624e-15 6.31202e-16 0
rhumerus 4.21864 27.2864 -66.4638
rradius 117.708 0 0
rwrist -43.2682 0 0
rhand 87.7889 -11.5665 0
rfingers 7.12502 0 0
rthumb 59.9374 -92.425 0
